<?xml version="1.0" encoding="UTF-8" ?>
<!DOCTYPE svg PUBLIC "-//W3C//DTD SVG 1.1//EN" "http://www.w3.org/Graphics/SVG/1.1/DTD/svg11.dtd">
<svg width="128pt" height="128pt" viewBox="0 0 128 128" version="1.1" xmlns="http://www.w3.org/2000/svg">
<g id="#4a4a4aff">
<path fill="#4a4a4a" opacity="1.00" d=" M 62.40 0.00 L 66.39 0.00 C 83.04 0.75 99.36 8.02 110.69 20.30 C 121.38 31.59 127.52 46.89 128.00 62.40 L 128.00 66.38 C 127.26 84.29 118.75 101.56 105.05 113.11 C 104.54 112.85 103.53 112.33 103.02 112.07 C 95.62 107.90 87.77 104.58 80.36 100.43 C 75.46 97.45 76.57 90.77 76.82 85.92 C 78.96 81.76 82.08 78.13 83.53 73.60 C 84.19 70.52 87.33 69.24 88.85 66.77 C 89.57 62.65 89.70 58.30 88.91 54.19 C 84.73 46.58 89.49 37.28 85.52 29.61 C 82.48 23.50 75.51 20.54 69.02 19.98 C 62.99 19.75 56.64 19.38 51.02 21.98 C 46.69 23.66 43.16 27.21 41.59 31.59 C 39.35 38.94 42.88 47.17 39.09 54.16 C 38.13 58.29 38.74 62.60 39.06 66.78 C 42.91 70.37 42.91 76.08 45.82 80.27 C 46.95 82.43 48.98 84.31 49.03 86.88 C 49.16 89.90 49.23 92.95 48.83 95.96 C 48.12 98.60 45.68 100.22 43.43 101.48 C 36.79 105.13 30.05 108.61 23.55 112.50 L 22.60 112.71 C 8.85 101.05 0.45 83.53 0.00 65.50 L 0.00 61.59 C 0.75 44.95 8.02 28.64 20.29 17.31 C 31.58 6.62 46.89 0.48 62.40 0.00 Z" />
</g>
<g id="#e5e5e5ff">
<path fill="#e5e5e5" opacity="1.00" d=" M 51.02 21.98 C 56.64 19.38 62.99 19.75 69.02 19.98 C 75.51 20.54 82.48 23.50 85.52 29.61 C 89.49 37.28 84.73 46.58 88.91 54.19 C 89.70 58.30 89.57 62.65 88.85 66.77 C 87.33 69.24 84.19 70.52 83.53 73.60 C 82.08 78.13 78.96 81.76 76.82 85.92 C 76.57 90.77 75.46 97.45 80.36 100.43 C 87.77 104.58 95.62 107.90 103.02 112.07 C 103.49 112.36 104.43 112.94 104.89 113.22 C 93.71 122.09 79.83 127.55 65.52 128.00 L 63.33 128.00 C 48.77 127.98 34.67 122.32 23.35 113.34 L 23.55 112.50 C 30.05 108.61 36.79 105.13 43.43 101.48 C 45.68 100.22 48.12 98.60 48.83 95.96 C 49.23 92.95 49.16 89.90 49.03 86.88 C 48.98 84.31 46.95 82.43 45.82 80.27 C 42.91 76.08 42.91 70.37 39.06 66.78 C 38.74 62.60 38.13 58.29 39.09 54.16 C 42.88 47.17 39.35 38.94 41.59 31.59 C 43.16 27.21 46.69 23.66 51.02 21.98 Z" />
</g>
</svg>
