<?xml version="1.0" encoding="UTF-8" ?>
<!DOCTYPE svg PUBLIC "-//W3C//DTD SVG 1.1//EN" "http://www.w3.org/Graphics/SVG/1.1/DTD/svg11.dtd">
<svg width="844pt" height="980pt" viewBox="0 0 844 980" version="1.1" xmlns="http://www.w3.org/2000/svg">
<g id="#ffffffff">
<path fill="#ffffff" opacity="1.00" d=" M 0.00 0.00 L 394.02 0.00 C 389.69 2.21 384.41 0.28 379.77 1.72 C 292.73 9.92 208.59 46.18 142.87 103.83 C 131.51 113.45 121.31 124.34 110.81 134.88 C 88.96 158.54 69.74 184.69 53.81 212.71 C 24.53 264.43 6.41 322.57 1.68 381.81 C 0.12 387.93 2.28 394.53 0.00 400.47 L 0.00 0.00 Z" />
<path fill="#ffffff" opacity="1.00" d=" M 442.67 0.00 L 844.00 0.00 L 844.00 404.01 C 842.38 396.68 843.53 389.15 842.29 381.80 C 834.81 287.08 792.89 195.45 726.20 127.77 C 659.72 58.51 568.54 13.69 473.21 2.68 C 468.85 1.88 464.39 2.12 460.06 1.16 C 454.21 1.37 448.50 -0.00 442.67 0.00 Z" />
<path fill="#ffffff" opacity="1.00" d=" M 0.00 429.11 C 1.60 436.40 0.47 443.90 1.70 451.22 C 9.19 546.16 51.33 637.98 118.28 705.71 C 182.43 772.38 269.51 816.20 361.06 829.07 C 373.31 831.00 385.65 831.67 397.96 832.88 C 405.97 833.01 413.98 833.00 422.00 833.00 C 422.00 882.00 422.00 931.00 422.00 980.00 L 0.00 980.00 L 0.00 429.11 Z" />
<path fill="#ffffff" opacity="1.00" d=" M 842.39 454.49 C 843.54 446.75 842.28 438.84 844.00 431.15 L 844.00 980.00 L 423.20 980.00 C 430.32 976.03 437.76 972.66 444.95 968.82 C 521.34 928.59 593.59 879.71 656.64 820.58 C 673.30 804.25 690.04 787.94 705.18 770.18 C 743.95 726.00 776.77 676.38 800.59 622.57 C 824.06 569.51 838.36 512.33 842.39 454.49 Z" />
</g>
<g id="#ff6c00ff">
<path fill="#ff6c00" opacity="1.00" d=" M 394.02 0.00 L 442.67 0.00 C 448.50 -0.00 454.21 1.37 460.06 1.16 C 464.39 2.12 468.85 1.88 473.21 2.68 C 568.54 13.69 659.72 58.51 726.20 127.77 C 792.89 195.45 834.81 287.08 842.29 381.80 C 843.53 389.15 842.38 396.68 844.00 404.01 L 844.00 431.15 C 842.28 438.84 843.54 446.75 842.39 454.49 C 838.36 512.33 824.06 569.51 800.59 622.57 C 776.77 676.38 743.95 726.00 705.18 770.18 C 690.04 787.94 673.30 804.25 656.64 820.58 C 593.59 879.71 521.34 928.59 444.95 968.82 C 437.76 972.66 430.32 976.03 423.20 980.00 L 422.00 980.00 C 422.00 931.00 422.00 882.00 422.00 833.00 C 413.98 833.00 405.97 833.01 397.96 832.88 C 385.65 831.67 373.31 831.00 361.06 829.07 C 269.51 816.20 182.43 772.38 118.28 705.71 C 51.33 637.98 9.19 546.16 1.70 451.22 C 0.47 443.90 1.60 436.40 0.00 429.11 L 0.00 400.47 C 2.28 394.53 0.12 387.93 1.68 381.81 C 6.41 322.57 24.53 264.43 53.81 212.71 C 69.74 184.69 88.96 158.54 110.81 134.88 C 121.31 124.34 131.51 113.45 142.87 103.83 C 208.59 46.18 292.73 9.92 379.77 1.72 C 384.41 0.28 389.69 2.21 394.02 0.00 Z" />
</g>
</svg>
