<?xml version="1.0" encoding="iso-8859-1"?>
<!-- Generator: Adobe Illustrator 19.0.0, SVG Export Plug-In . SVG Version: 6.00 Build 0)  -->
<svg version="1.1" id="Layer_1" xmlns="http://www.w3.org/2000/svg" xmlns:xlink="http://www.w3.org/1999/xlink" x="0px" y="0px"
	 viewBox="0 0 496.2 496.2" style="enable-background:new 0 0 496.2 496.2;" xml:space="preserve">
<path style="fill:#48A1AF;" d="M248.1,0C111.1,0,0,111.1,0,248.1s111.1,248.1,248.1,248.1s248.1-111.1,248.1-248.1S385.1,0,248.1,0z
	"/>
<path style="fill:#352116;" d="M355.1,194.9c-3.9-36.6-17.8-74.1-49.3-105.8l-40.7,5.7c24.5,17.7,38.6,28.1,46.2,38.3H184.9
	c7.6-10.2,21.7-20.6,46.2-38.3l-40.7-5.7c-31.5,31.7-45.4,69.2-49.3,105.8c-1.9,17.5-16,50.2-10,99.2c3.2,26.4,26.9,55.1,32.5,64
	c35.8,57.7,133.2,57.7,169,0c5.6-8.9,29.3-37.6,32.5-64C371.1,245.1,357,212.4,355.1,194.9z"/>
<path style="fill:#9B6D31;" d="M418.5,382.8c-8.5-27.3-81.2-49.3-170.8-49.3s-161.5,22-170,49.3c-2.6,8.5-5.5,22.2-8.3,37.4
	c45.1,46.9,108.5,76,178.7,76s133.6-29.2,178.7-76C424.1,405,421.2,391.2,418.5,382.8z"/>
<g>
	<path style="fill:#F3FAFF;" d="M418.5,382.8c-5.8-18.8-42.1-35.1-93.3-43.4l37.7,128.7c23.8-12.5,45.4-28.7,63.9-47.9
		C424.1,405,421.2,391.2,418.5,382.8z"/>
	<path style="fill:#F3FAFF;" d="M77.7,382.8c-2.6,8.5-5.5,22.2-8.3,37.4c18.4,19.1,39.8,35.2,63.4,47.7l37.6-128.4
		C119.4,347.7,83.5,364,77.7,382.8z"/>
	<path style="fill:#F3FAFF;" d="M247.7,333.4c-15.2,0-29.9,0.6-43.9,1.8l44.3,111.4l44.4-111.3C278.2,334.1,263.2,333.4,247.7,333.4
		z"/>
</g>
<path style="fill:#CE936B;" d="M247.7,333.4c-13.2,0-26.1,0.5-38.4,1.4l38.8,105.3l38.8-105.2C274.4,333.9,261.2,333.4,247.7,333.4z
	"/>
<rect x="204.9" y="324.3" style="fill:#BDC4C9;" width="86.2" height="22.5"/>
<path style="fill:#CE936B;" d="M202.1,282.1c0,0,7.7,29,7.7,66.9c5.7,27.5,71.1,27.2,76.8-0.5c0-38,7.5-66.5,7.5-66.5h-92V282.1z"/>
<path style="fill:#492C1D;" d="M248.1,72.6c-48.7,0-88.3,10.2-88.3,102.6c0,31.3,8,72.2,16.5,91.4c14.6,32.8,53.8,59.3,71.8,59.3
	s57.2-27.3,71.8-59.3c8.7-19.1,16.5-60.1,16.5-91.4C336.4,82.8,296.8,72.6,248.1,72.6z"/>
<path style="fill:#DB9A6E;" d="M248.1,72.6c-48.7,0-88.3,10.2-88.3,102.6c0,31.3,8,72.2,16.5,91.4c14.6,32.7,53.8,31.5,71.8,31.5
	s57.2,0.5,71.8-31.5c8.7-19.1,16.5-60.1,16.5-91.4C336.4,82.8,296.8,72.6,248.1,72.6z"/>
<path style="fill:#332016;" d="M281.9,178.4c-9.9-0.2-17.1,11-17.1,11s3.4,3.5,17.6,3.5c14.4,0,19.4-5.5,19.4-5.5
	S293.3,178.6,281.9,178.4z"/>
<path style="fill:#EADAD0;" d="M281.9,178.4c-9.9-0.2-17.1,11-17.1,11s7.7,2.2,17.6,1.7c11.2-0.6,19.4-3.7,19.4-3.7
	S293.3,178.6,281.9,178.4z"/>
<circle style="fill:#23110B;" cx="283" cy="184.9" r="7.4"/>
<path style="fill:#9E6E4D;" d="M290,177.5c-1.9-0.4-5.9-0.5-8.3-0.5c-9.9,0.3-16.9,12.3-16.9,12.3l0.9,0.2c3.8-3,12.7-10.3,19-10.2
	c11.5,0.3,17.2,8,17.2,8S300.7,179.5,290,177.5z"/>
<g>
	<path style="fill:#191919;" d="M288.4,177.6c-9.9-0.2-23.7,11.7-23.7,11.7l0.9,0.2c3.8-3,12.7-10.3,19-10.2c9.4,0.3,17.2,8,17.2,8
		S299.9,177.9,288.4,177.6z"/>
	<path style="fill:#191919;" d="M282.4,191c-10,0.5-17.6-1.7-17.6-1.7s3.4,3.5,17.6,3.5c14.4,0,19.4-5.5,19.4-5.5
		S293.6,190.4,282.4,191z"/>
</g>
<g>
	<path style="fill:#492C1D;" d="M286.5,269.7c-0.1-3-0.5-6.1-1.5-9.2c-0.5-1.6-1.2-3.2-2.2-4.8c-0.3-0.4-0.5-0.8-0.8-1.2
		c-0.2-0.2-0.3-0.4-0.5-0.6l-0.5-0.5l-0.1-0.1l-0.2-0.2c-0.1-0.1-0.2-0.2-0.4-0.4c-0.2-0.2-0.5-0.5-0.8-0.7c-0.5-0.4-1-0.7-1.5-1
		c-2.1-1.1-3.9-1.5-5.7-1.8c-1.8-0.2-3.4-0.3-5-0.2c-3.2,0.2-6.2,0.8-9,1.6c-2.9,0.9-5.6,2-8.2,3.5s-5.1,3.2-7.3,5.5
		c3.1,0.6,6.1,0.7,8.9,0.8c2.9,0.1,5.6,0,8.3-0.1l7.7-0.4c1.2,0,2.4,0,3.4,0s2,0.1,2.5,0.2c0.1,0,0.2,0,0.3,0h0.1l0,0l0,0l0,0
		c0.1,0.1-0.1-0.1-0.1-0.1l0,0l0.3,0.3l0.1,0.1c0,0,0.1,0.1,0.2,0.2c0.2,0.1,0.3,0.3,0.5,0.5c0.6,0.7,1.3,1.6,1.9,2.6
		c1.2,2,2.1,4.5,2.9,7c0.9,2.6,1.6,5.2,2.3,8c0.8,2.7,1.5,5.5,2.5,8.3C285.9,281.4,286.7,275.7,286.5,269.7z"/>
	<path style="fill:#492C1D;" d="M246.1,254.3c-2.6-1.5-5.3-2.6-8.2-3.5s-5.8-1.5-9-1.6c-1.6-0.1-3.2,0-5,0.2
		c-1.8,0.3-3.6,0.7-5.7,1.8c-0.5,0.3-1,0.6-1.5,1c-0.3,0.2-0.5,0.4-0.8,0.7c-0.1,0.1-0.2,0.2-0.4,0.4l-0.2,0.2l-0.1,0.1l-0.5,0.5
		c-0.2,0.2-0.3,0.4-0.5,0.6c-0.3,0.4-0.6,0.8-0.8,1.2c-1,1.6-1.7,3.2-2.2,4.8c-1,3.2-1.4,6.2-1.5,9.2c-0.2,6,0.6,11.7,1.7,17.4
		c1-2.8,1.8-5.5,2.5-8.3c0.8-2.7,1.5-5.4,2.3-8c0.8-2.5,1.8-5,2.9-7c0.6-1,1.2-1.9,1.9-2.6c0.2-0.2,0.3-0.3,0.5-0.5
		c0.1-0.1,0.2-0.2,0.2-0.2l0.1-0.1l0.3-0.3l0,0l-0.1,0.1l0,0l0,0l0,0h0.1c0.1,0,0.2,0,0.3,0c0.5-0.1,1.4-0.2,2.5-0.2
		c1,0,2.2,0,3.4,0l7.7,0.4c2.7,0.1,5.5,0.2,8.3,0.1c2.9-0.1,5.8-0.2,8.9-0.8C251.2,257.4,248.7,255.8,246.1,254.3z"/>
</g>
<path style="fill:#9E6E4D;" d="M260.9,263.6c-3.7-0.7-12.8,1.7-12.8,1.7s-9.3-2.4-13-1.7c-5.9,1.1-14.7,9.4-14.7,11.4
	c0,3.3,12.4,7.8,27.7,7.8s27.7-4.5,27.7-7.8C275.8,275,266.9,264.7,260.9,263.6z"/>
<path style="fill:#896045;" d="M248.1,269.3c-16.4,0-27.7,5.7-27.7,5.7c0,3.3,12.4,7.8,27.7,7.8s27.7-4.5,27.7-7.8
	C275.8,275,264.5,269.3,248.1,269.3z"/>
<g>
	<path style="fill:#AF7F5F;" d="M256,204.2c0-11.4-3.8-14.4-3.8-14.4c2.2,8.3,2,15.2,2.3,21.7c0.4,9.3,4.2,14.6,4.2,14.6
		C257,222.2,256,215.6,256,204.2z"/>
	<path style="fill:#AF7F5F;" d="M234.1,235.3c0,0-6.5,12.7,5.1,11.5C239.2,246.9,231.6,244.5,234.1,235.3z"/>
	<path style="fill:#AF7F5F;" d="M262.1,235.3c2.5,9.1-5.1,11.5-5.1,11.5C268.6,248.7,262.1,235.3,262.1,235.3z"/>
</g>
<g>
	<path style="fill:#352116;" d="M180.1,141.8l-19-1c-4.2,10.9-3.9,24.4-3.9,37.5c0,0,11.4-1.9,11.4,2.6l2.8,27.6l10.8-10
		C181.9,150.4,180.1,141.8,180.1,141.8z"/>
	<path style="fill:#352116;" d="M333.2,140.8l-17.1-0.4c0,0-1.8,10-2,58l10.8,10l2.7-27.6c0-4.5,9.7-2.6,9.7-2.6
		C337.3,165.1,337.5,151.7,333.2,140.8z"/>
</g>
<g>
	<path style="fill:#DB9A6E;" d="M161.4,178c-8.4,1.4-14.9,5.1-10.1,32.9s10.7,29.1,19.1,27.7L161.4,178z"/>
	<path style="fill:#DB9A6E;" d="M334.9,178l-9,60.6c8.4,1.4,14.3,0.1,19.1-27.7C349.7,183.1,343.3,179.5,334.9,178z"/>
</g>
<path style="fill:#352116;" d="M310.9,169.5c-8.2-7-21.1-6.6-28-5.7c-1.2,0.2-2.4,0.3-3.5,0.5c-0.4,0.1-1,1.2-1,1.2
	s-0.6-0.9-0.8-0.9c-5.5,1.2-9.9,2.8-12.1,4.1l-0.3,0.2c-2.5,1.5-5.6,3.3-3.7,8.1c1,2.5,2.7,3.7,4.7,3.5c0.4-0.1,0.9-0.2,1.3-0.4
	c0.6-0.3,1.3-0.7,2-1.2c0.4-0.3,0.8-0.5,1.2-0.7c0.5-0.3,1-0.6,1.5-0.8c0.6-0.3,1.6-3.1,1.6-3.1s1.7,1.6,2.5,1.3
	c3.1-1.2,6.5-2,10.2-2.5c9.8-1.3,18.1,0.4,20.2,1.1c1.5,0.5,2.7,0.7,3.5,0.6c1.6-0.2,2.1-1.5,2.2-2
	C312.5,171.7,312,170.4,310.9,169.5z"/>
<g>
	<path style="fill:#141211;" d="M214.4,160.9c-17.1,0-31,4.6-31,19.7c0,15.1,13.9,31.2,31,31.2s31-16.1,31-31.2
		C245.4,165.5,231.6,160.9,214.4,160.9z"/>
	<polygon style="fill:#141211;" points="339.8,143.9 168.9,184.3 170,194.3 342.1,153.6 	"/>
</g>
<path style="fill:#353230;" d="M273.9,48.6c-9.5-2.6-17.7-3.8-26.7-3.8c-8.2,0-19,1.5-27.3,4c-21.9,0-58.6,56-58.6,56h173.6
	C334.9,104.9,291.5,48.6,273.9,48.6z"/>
<path style="fill:#282220;" d="M273.9,45.9c-9.3,0-17.7,6.3-26.7,6.3c-8.2,0-16.9-6.1-27.3-6.1c-21.9,0-58.6,56-58.6,56h173.6
	C334.9,102.1,291.5,45.9,273.9,45.9z"/>
<path style="fill:#141211;" d="M248.1,77.1c-92.6,0-168.3,29.8-168.3,29.8c0,4.5,59.6,65.3,59.6,64.9c0-1.1,35.2-38.1,108.7-38.1
	s108.6,38.4,108.6,38.4c0.2-0.5,59.7-60.7,59.7-65.1C416.4,106.9,340.7,77.1,248.1,77.1z"/>
<g>
	<path style="fill:#F3FAFF;" d="M205.1,324.9l-37,32.3l43.4,38.5c0.3,0.3,17.6-6.8,17.6-6.8L205.1,324.9z"/>
	<path style="fill:#F3FAFF;" d="M291,324.9l-23.9,63.9c0,0,17.2,7.1,17.5,6.8l43.4-38.5L291,324.9z"/>
</g>
<g>
</g>
<g>
</g>
<g>
</g>
<g>
</g>
<g>
</g>
<g>
</g>
<g>
</g>
<g>
</g>
<g>
</g>
<g>
</g>
<g>
</g>
<g>
</g>
<g>
</g>
<g>
</g>
<g>
</g>
</svg>
