<?xml version="1.0" encoding="iso-8859-1"?>
<!-- Generator: Adobe Illustrator 18.0.0, SVG Export Plug-In . SVG Version: 6.00 Build 0)  -->
<!DOCTYPE svg PUBLIC "-//W3C//DTD SVG 1.1//EN" "http://www.w3.org/Graphics/SVG/1.1/DTD/svg11.dtd">
<svg version="1.1" id="Capa_1" xmlns="http://www.w3.org/2000/svg" xmlns:xlink="http://www.w3.org/1999/xlink" x="0px" y="0px"
	 viewBox="0 0 114.757 114.757" style="enable-background:new 0 0 114.757 114.757;" xml:space="preserve">
<g>
	<path style="fill-rule:evenodd;clip-rule:evenodd;fill:#F0B98B;" d="M67.048,74.312c-0.199,0.312-19.746,0.623-19.962,0.932
		c-6.14,8.758-19.403,12.595-29.95,14.953c-10.498,2.347-10.904,15.68-10.92,24.56h102.325c-0.016-8.88-0.21-22.165-10.919-24.56
		C86.913,87.803,72.872,83.469,67.048,74.312z"/>
	<path style="fill-rule:evenodd;clip-rule:evenodd;fill:#FF386A;" d="M13.03,91.967c-6.504,4.514-6.8,15.255-6.813,22.79h102.325
		c-0.014-7.556-0.158-18.3-6.798-22.812C86.162,113.19,28.633,113.169,13.03,91.967z"/>
	<path style="fill-rule:evenodd;clip-rule:evenodd;fill:#CC7C54;" d="M29.301,14.966C32.94,7.256,40.045,2.431,49.953,4.255
		c7.927-9.703,28.963-0.929,33.262,7.585c16.582,32.839-12.71,51.279-26.552,51.279C44.242,63.119,16.569,41.948,29.301,14.966z"/>
	<path style="fill-rule:evenodd;clip-rule:evenodd;fill:#F0B98B;" d="M67.63,55.608v25.117c-5.639,7.411-14.865,7.155-20.503,0
		V55.608C47.127,42.046,67.63,42.046,67.63,55.608z"/>
	<path style="fill-rule:evenodd;clip-rule:evenodd;fill:#CC9568;" d="M67.63,55.608v16.816c-3.879,3.035-7.618,4.735-10.251,4.735
		s-6.373-1.7-10.252-4.735V55.608C47.127,42.046,67.63,42.046,67.63,55.608z"/>
	<path style="fill-rule:evenodd;clip-rule:evenodd;fill:#CC7C54;" d="M86.515,38.989c15.98,3.871,14.673,26.86,5.306,35.129
		c-14.675,12.955,1.729,24.196-3.362,23.148c-12.098-2.488-20.4-20.19-7.998-33.93C92.863,49.598,77.336,36.765,86.515,38.989z"/>
	
		<ellipse transform="matrix(-0.5722 -0.8201 0.8201 -0.5722 102.0131 133.4148)" style="fill-rule:evenodd;clip-rule:evenodd;fill:#86BCEB;" cx="85.804" cy="40.1" rx="2.854" ry="7.222"/>
	<path style="fill-rule:evenodd;clip-rule:evenodd;fill:#CC7C54;" d="M28.658,38.989c-15.981,3.871-14.674,26.86-5.306,35.129
		c14.674,12.955-1.729,24.196,3.362,23.148c12.098-2.488,20.4-20.19,7.998-33.93C22.309,49.598,37.836,36.765,28.658,38.989z"/>
	
		<ellipse transform="matrix(0.5722 -0.8201 0.8201 0.5722 -20.3229 41.241)" style="fill-rule:evenodd;clip-rule:evenodd;fill:#86BCEB;" cx="29.368" cy="40.1" rx="2.854" ry="7.221"/>
	<path style="fill-rule:evenodd;clip-rule:evenodd;fill:#F0B98B;" d="M57.379,72.982c-6.675,0-20.775-10.494-25.135-25.524
		c-4.401-15.176,3.888-36.944,25.135-36.944c21.247,0,29.536,21.767,25.135,36.944C78.154,62.488,64.054,72.982,57.379,72.982z"/>
	<path style="fill-rule:evenodd;clip-rule:evenodd;fill:#FF386A;" d="M46.739,55.071c4.501-3.293,9.199-1.344,10.77-1.344
		c1.571,0,6.01-1.948,10.512,1.344C65.78,64.125,50.128,64.354,46.739,55.071z"/>
	<path style="fill-rule:evenodd;clip-rule:evenodd;fill:#A31F40;" d="M46.873,55.024c4.179-1.474,7.872,1.412,10.501,1.412
		c2.629,0,6.332-3.876,10.511-1.265C62.989,60.162,51.803,59.892,46.873,55.024z"/>
	<path style="fill-rule:evenodd;clip-rule:evenodd;fill:#FFFFFF;" d="M46.738,55.024c4.502-1.856,7.814-0.51,10.443-0.51
		s6.337-1.346,10.839,0.51C63.123,57.819,51.668,57.726,46.738,55.024z"/>
	<path style="fill-rule:evenodd;clip-rule:evenodd;fill:#FF386A;" d="M46.76,55.041c4.481-3.251,8.328-0.996,10.952-0.996
		c2.625,0,5.784-2.267,10.286,1.026c-0.016,0.046-0.035,0.091-0.052,0.136C62.207,55.105,52.815,55.047,46.76,55.041z"/>
	
		<ellipse transform="matrix(-0.3946 -0.9189 0.9189 -0.3946 -0.0201 90.0338)" style="fill-rule:evenodd;clip-rule:evenodd;fill:#F0B98B;" cx="29.65" cy="45.024" rx="7.317" ry="4.232"/>
	
		<ellipse transform="matrix(0.3946 -0.9188 0.9188 0.3946 8.9513 103.6333)" style="fill-rule:evenodd;clip-rule:evenodd;fill:#F0B98B;" cx="83.123" cy="45.024" rx="7.316" ry="4.232"/>
	<path style="fill-rule:evenodd;clip-rule:evenodd;fill:#CC7C54;" d="M82.134,43.33C94.658,8.06,70.492,5.817,56.285,5.817
		c-16.001,0-34.687,8.161-24.351,37.916c15.254-0.751,28.662-9.25,42.141-27.116C76.37,25.692,77.918,37.488,82.134,43.33z"/>
	<g>
		<path style="fill-rule:evenodd;clip-rule:evenodd;fill:#C21842;" d="M24.525,114.757c0.063-2.012,0.246-4.434,0.732-7.387
			c-0.907,2.879-1.549,5.289-2.002,7.387H24.525z"/>
		<path style="fill-rule:evenodd;clip-rule:evenodd;fill:#C21842;" d="M90.233,114.757c-0.062-2.012-0.245-4.434-0.731-7.387
			c0.907,2.879,1.549,5.289,2.002,7.387H90.233z"/>
	</g>
	<path style="fill-rule:evenodd;clip-rule:evenodd;fill:#FFFFFF;" d="M105.111,95.502c-0.878,0.831-2.063,1.341-3.367,1.341
		c-0.874,0-1.693-0.229-2.403-0.629c0.316,0.648,0.494,1.376,0.494,2.146c0,2.705-2.192,4.897-4.897,4.897
		c-1.556,0-2.942-0.725-3.839-1.856c0.136,0.45,0.21,0.927,0.21,1.421c0,2.705-2.193,4.897-4.898,4.897
		c-1.93,0-3.599-1.117-4.396-2.739c0.034,0.232,0.052,0.469,0.052,0.711c0,2.705-2.192,4.897-4.897,4.897
		c-2.377,0-4.357-1.693-4.803-3.938c12.633-2.126,23.746-7.025,29.379-14.704C103.13,92.888,104.232,94.102,105.111,95.502
		L105.111,95.502z M33.571,106.616v-1.488c0.025-0.164,0.058-0.324,0.099-0.481c8.717,2.575,18.804,3.61,28.62,3.098l0.002,0.129
		c0,2.705-2.192,4.898-4.898,4.898c-2.274,0-4.185-1.549-4.737-3.65c-0.694,1.86-2.487,3.185-4.589,3.185
		c-2.705,0-4.897-2.192-4.897-4.897c0-0.158,0.007-0.313,0.022-0.467c-0.488,2.191-2.443,3.829-4.781,3.829
		C35.96,110.769,33.929,108.967,33.571,106.616L33.571,106.616z M33.571,104.791c0.02-0.052,0.039-0.105,0.057-0.157l-0.057-0.017
		V104.791L33.571,104.791z M72.134,106.687c-3.173,0.524-6.437,0.876-9.735,1.052c0.198,2.522,2.309,4.508,4.882,4.508
		c2.705,0,4.897-2.192,4.897-4.897C72.178,107.125,72.163,106.904,72.134,106.687z M33.571,104.617v0.174
		c-0.698,1.853-2.487,3.171-4.584,3.171c-2.263,0-4.167-1.535-4.729-3.62v-2.555c0.064-0.241,0.147-0.474,0.246-0.698
		C27.279,102.479,30.329,103.654,33.571,104.617L33.571,104.617z M33.571,105.128c-0.036,0.243-0.056,0.491-0.056,0.744
		c0,0.253,0.02,0.501,0.056,0.744V105.128L33.571,105.128z M24.258,101.322c0.059-0.088,0.115-0.179,0.169-0.271l-0.169-0.085
		V101.322z M24.258,100.966v0.356c-0.879,1.312-2.374,2.175-4.072,2.175c-2.704,0-4.897-2.192-4.897-4.898
		c0-1.132,0.385-2.175,1.03-3.005c-0.869,0.789-2.022,1.269-3.289,1.269c-1.288,0-2.46-0.498-3.334-1.311
		c0.874-1.413,1.966-2.638,3.334-3.587C15.691,95.583,19.573,98.584,24.258,100.966L24.258,100.966z M24.258,101.787
		c-0.11,0.407-0.169,0.836-0.169,1.278c0,0.442,0.059,0.87,0.169,1.277V101.787z"/>
</g>
<g>
</g>
<g>
</g>
<g>
</g>
<g>
</g>
<g>
</g>
<g>
</g>
<g>
</g>
<g>
</g>
<g>
</g>
<g>
</g>
<g>
</g>
<g>
</g>
<g>
</g>
<g>
</g>
<g>
</g>
</svg>
