<?xml version="1.0" encoding="iso-8859-1"?>
<!-- Generator: Adobe Illustrator 19.0.0, SVG Export Plug-In . SVG Version: 6.00 Build 0)  -->
<svg version="1.1" id="Layer_1" xmlns="http://www.w3.org/2000/svg" xmlns:xlink="http://www.w3.org/1999/xlink" x="0px" y="0px"
	 viewBox="0 0 496.2 496.2" style="enable-background:new 0 0 496.2 496.2;" xml:space="preserve">
<path style="fill:#5B4F3F;" d="M248.1,0C111.1,0,0,111.1,0,248.1s111.1,248.1,248.1,248.1s248.1-111.1,248.1-248.1S385.1,0,248.1,0z
	"/>
<path style="fill:#A0EAEA;" d="M418.5,382.8c-8.5-27.3-81.2-49.3-170.8-49.3s-161.5,22-170,49.3c-2.6,8.5-5.5,22.2-8.3,37.4
	c45.1,46.9,108.5,76,178.7,76s133.6-29.2,178.7-76C424.1,405,421.2,391.2,418.5,382.8z"/>
<g>
	<path style="fill:#A07252;" d="M304.9,269.8H191.3c17.7,46.3,1.4,68.3,1.4,68.3h110.7C303.5,338,287.2,316.1,304.9,269.8z"/>
	<path style="fill:#A07252;" d="M247.7,333.4c-18.7,0-37.1,1-53.8,2.7c1.3,21,10.7,44.8,54.3,44.8c43.5,0,52.9-23.8,54.1-44.7
		C285.3,334.4,266.6,333.4,247.7,333.4z"/>
</g>
<g>
	<path style="fill:#77C6C4;" d="M302.3,336.2c-1.3,21-10.6,44.7-54.1,44.7c-43.6,0-53-23.8-54.3-44.8c-5,0.5-9.3,1.1-14.1,1.8
		c2.1,26.2,14.3,55,68.4,55c54,0,66.1-28.7,68.2-54.9C311.6,337.3,307.3,336.7,302.3,336.2z"/>
	<path style="fill:#77C6C4;" d="M248.2,382.4c-9.7,0-17.7-1.8-24.3-4.9c1.2,8.5,2.7,12.3,2.7,15.8c0,11.9,9.6,21.5,21.5,21.5
		s21.5-9.6,21.5-21.5c0-3.5,1.5-7.3,2.7-15.7C265.8,380.6,257.8,382.4,248.2,382.4z"/>
</g>
<path style="fill:#A07253;" d="M248.1,356.5c-7.7,0-14,6.3-14,14c0,4.6,2.3,16.3,2.3,19.4c0,6.4,5.2,11.7,11.7,11.7
	s11.7-5.2,11.7-11.7c0-3.2,2.3-14.8,2.3-19.4C262.1,362.8,255.8,356.5,248.1,356.5z"/>
<path style="fill:#B27E5B;" d="M248.1,61.6c-48.7,0-88.3,21.2-88.3,113.6c0,31.3,6.2,68.2,15.5,87.1c20.4,41.6,55.7,56.1,72.8,56.1
	s52.4-14.5,72.8-56.1c9.3-18.9,15.5-55.8,15.5-87.1C336.4,82.8,296.8,61.6,248.1,61.6z"/>
<g>
	<path style="fill:#2D1B0D;" d="M312.2,170.1c-7.5-7.1-20.9-8.2-28.2-8.2c-1.2,0-2.5,0-3.7,0.1c-0.4,0-1.1,1-1.1,1s-0.5-0.9-0.7-0.9
		c-5.8,0.4-10.6,1.4-13,2.3l-0.4,0.1c-2.8,1-6.3,2.3-4.9,6.7c0.7,2.3,2.3,3.6,4.3,3.6c0.4,0,0.9-0.1,1.4-0.2
		c0.7-0.2,1.4-0.5,2.2-0.8c0.5-0.2,0.9-0.4,1.3-0.5c0.5-0.2,1.1-0.4,1.6-0.6c0.7-0.2,2.1-2.5,2.1-2.5s1.6,1.6,2.4,1.4
		c3.4-0.7,7-1,10.8-1c10.3,0,18.6,2.4,20.8,3.3c1.5,0.6,2.7,0.9,3.6,0.9c1.7,0,2.3-1.1,2.5-1.5C313.5,172.2,313.2,171,312.2,170.1z"
		/>
	<path style="fill:#2D1B0D;" d="M231.2,164.5l-0.4-0.1c-1.2-0.5-3.1-0.9-5.3-1.3c-0.8-0.1-2.7,1.3-2.7,1.3s-0.7-1.8-1.1-1.8
		c-2.9-0.3-6.1-0.6-9.6-0.6c-7.3,0-20.7,1.1-28.2,8.2c-1,0.9-1.4,2.1-0.9,3.2c0.2,0.5,0.8,1.5,2.5,1.5c0.9,0,2.1-0.3,3.6-0.9
		c2.1-0.8,10.5-3.3,20.8-3.3c6.3,0,12,0.9,16.9,2.7c0.4,0.1,0.9,0.3,1.3,0.5c0.8,0.3,1.6,0.7,2.2,0.8c0.5,0.1,1,0.2,1.4,0.2
		c2.1,0,3.7-1.3,4.4-3.6C237.5,166.8,234,165.5,231.2,164.5z"/>
	<path style="fill:#2D1B0D;" d="M248.1,273.3c-5.4,0-9,3.4-9,3.4c0,1.9,4,10.2,9,10.2s9-8.3,9-10.2
		C257.1,276.7,253.5,273.3,248.1,273.3z"/>
</g>
<path style="fill:#9E6E4D;" d="M260.7,261.1c-3.6-0.5-12.6,2.7-12.6,2.7s-9.2-3.2-12.8-2.7c-5.8,0.8-14.5,8.3-14.5,9.7
	c0,2.4,12.2,5.7,27.3,5.7s27.3-3.3,27.3-5.7C275.4,270.9,266.6,261.9,260.7,261.1z"/>
<path style="fill:#896045;" d="M248.1,266.7c-16.2,0-27.3,4.2-27.3,4.2c0,2.4,12.2,5.7,27.3,5.7s27.3-3.3,27.3-5.7
	C275.4,270.9,264.3,266.7,248.1,266.7z"/>
<g>
	<path style="fill:#876249;" d="M257.6,204.2c0-11.4-3.8-14.4-3.8-14.4c2.2,8.3,2,15.2,2.3,21.7c0.4,9.3,4.2,14.6,4.2,14.6
		C258.7,222.2,257.6,215.6,257.6,204.2z"/>
	<path style="fill:#876249;" d="M233.9,235.3c0,0-6.5,12.7,5.1,11.5C238.9,246.9,231.3,244.5,233.9,235.3z"/>
	<path style="fill:#876249;" d="M263.6,235.3c2.5,9.1-5.1,11.5-5.1,11.5C270.1,248.7,263.6,235.3,263.6,235.3z"/>
</g>
<g>
	<path style="fill:#2D1B0D;" d="M180.1,141.8l-14.6-1c-4.2,10.9-5.6,24.4-5.6,37.5c0,0,8.8-1.9,8.8,2.6l2.8,27.6l3.9-1.9
		C175,183.6,180.1,141.8,180.1,141.8z"/>
	<path style="fill:#2D1B0D;" d="M330.8,140.8l-14.6-0.4c0,0,5.1,43.2,4.9,66.2l3.9,1.9l2.8-27.6c0-4.5,8.8-2.6,8.8-2.6
		C336.5,165.1,335.1,151.7,330.8,140.8z"/>
</g>
<path style="fill:#B27E5B;" d="M161.4,178c-8.4,1.4-14.9,5.1-10.1,32.9s10.7,29.1,19.1,27.7L161.4,178z"/>
<path style="fill:#D1D1E0;" d="M152.2,213.3l88.5-78.8C152,137.3,153.9,194,152.2,213.3z"/>
<path style="fill:#B27E5B;" d="M334.9,178l-9,60.6c8.4,1.4,14.3,0.1,19.1-27.7C349.7,183.1,343.3,179.5,334.9,178z"/>
<path style="fill:#D1D1D3;" d="M247.6,32.4c-70.8,0-93.4,28.6-97.1,59.7h194.6C341.2,61,318.4,32.4,247.6,32.4z"/>
<path style="fill:#DEDEE2;" d="M247.6,52.4c-178.8,0-102.5,151.7-95.8,164.5c2.9-14.8-6.6-82.5,95.9-82.5s93.6,67.9,96.6,82.6
	C350.6,204.8,426.8,52.4,247.6,52.4z"/>
<g>
	<polygon style="fill:#C9C9D3;" points="202.3,96.4 170.6,121.1 337.6,174 347.3,145.1 	"/>
	<path style="fill:#C9C9D3;" d="M296.6,131.9c0,0,43.8,72.3,47.5,83.7C342.7,202.6,350.8,159.8,296.6,131.9z M344.1,215.6
		c0.1,0.5,0.1,1,0.2,1.4C344.4,216.8,344.3,216.3,344.1,215.6z"/>
</g>
<path style="fill:#DFDFEF;" d="M247.6,52.4c-46.7,0-75.9,10.3-93.6,25.8c0,0-12.5,46,37.5,48.2c170.7,7.3,149.8,75.9,152.8,90.6
	C350.6,204.8,426.8,52.4,247.6,52.4z"/>
<path style="fill:#332016;" d="M281.9,178.4c-9.9-0.2-17.1,11-17.1,11s3.4,3.5,17.6,3.5c14.4,0,19.4-5.5,19.4-5.5
	S293.3,178.6,281.9,178.4z"/>
<path style="fill:#EADAD0;" d="M281.9,178.4c-9.9-0.2-17.1,11-17.1,11s7.7,2.2,17.6,1.7c11.2-0.6,19.4-3.7,19.4-3.7
	S293.3,178.6,281.9,178.4z"/>
<circle style="fill:#4C2819;" cx="283" cy="184.9" r="7.4"/>
<path style="fill:#9E6E4D;" d="M290,177.5c-1.9-0.4-5.9-0.5-8.3-0.5c-9.9,0.3-16.9,12.3-16.9,12.3l0.9,0.2c3.8-3,12.7-10.3,19-10.2
	c11.5,0.3,17.2,8,17.2,8S300.7,179.5,290,177.5z"/>
<g>
	<path style="fill:#191919;" d="M288.4,177.6c-9.9-0.2-23.7,11.7-23.7,11.7l0.9,0.2c3.8-3,12.7-10.3,19-10.2c9.4,0.3,17.2,8,17.2,8
		S299.9,177.9,288.4,177.6z"/>
	<path style="fill:#191919;" d="M282.4,191c-10,0.5-17.6-1.7-17.6-1.7s3.4,3.5,17.6,3.5c14.4,0,19.4-5.5,19.4-5.5
		S293.6,190.4,282.4,191z"/>
</g>
<path style="fill:#332016;" d="M214.3,178.4c-11.5,0.3-19.9,9-19.9,9s5,5.5,19.4,5.5c14.2,0,17.6-3.5,17.6-3.5
	S224.3,178.1,214.3,178.4z"/>
<path style="fill:#EADAD0;" d="M214.3,178.4c-11.5,0.3-19.9,9-19.9,9s8.2,3.1,19.4,3.7c10,0.5,17.6-1.7,17.6-1.7
	S224.3,178.1,214.3,178.4z"/>
<circle style="fill:#4C2819;" cx="213.2" cy="184.9" r="7.4"/>
<path style="fill:#9E6E4D;" d="M214.5,177c-2.4-0.1-6.4,0.1-8.3,0.5c-10.7,2-11.8,9.9-11.8,9.9s5.7-7.7,17.2-8
	c6.2-0.1,15.2,7.2,19,10.2l0.9-0.2C231.5,189.3,224.4,177.3,214.5,177z"/>
<g>
	<path style="fill:#191919;" d="M207.8,177.6c-11.5,0.3-13.3,9.7-13.3,9.7s7.7-7.7,17.2-8c6.2-0.2,15.2,7.2,19,10.2l0.9-0.2
		C231.5,189.3,217.7,177.4,207.8,177.6z"/>
	<path style="fill:#191919;" d="M213.8,191c-11.2-0.6-19.4-3.7-19.4-3.7s5,5.5,19.4,5.5c14.2,0,17.6-3.5,17.6-3.5
		S223.8,191.5,213.8,191z"/>
</g>
<g>
</g>
<g>
</g>
<g>
</g>
<g>
</g>
<g>
</g>
<g>
</g>
<g>
</g>
<g>
</g>
<g>
</g>
<g>
</g>
<g>
</g>
<g>
</g>
<g>
</g>
<g>
</g>
<g>
</g>
</svg>
