<?xml version="1.0" encoding="iso-8859-1"?>
<!-- Generator: Adobe Illustrator 19.0.0, SVG Export Plug-In . SVG Version: 6.00 Build 0)  -->
<svg version="1.1" id="Layer_1" xmlns="http://www.w3.org/2000/svg" xmlns:xlink="http://www.w3.org/1999/xlink" x="0px" y="0px"
	 viewBox="0 0 511.98 511.98" style="enable-background:new 0 0 511.98 511.98;" xml:space="preserve">
<path style="fill:#8CC153;" d="M469.387,252.001c-1.625-3.914-5.421-6.453-9.655-6.453H376.14c-4.233,0-8.046,2.539-9.64,6.453
	c-1.625,3.898-0.734,8.39,2.266,11.382l41.796,41.795c1.952,1.953,4.608,3.062,7.374,3.062s5.438-1.109,7.39-3.062l41.796-41.795
	C470.106,260.391,470.997,255.9,469.387,252.001z"/>
<path style="fill:#656D78;" d="M439.56,383.676l-1.781-0.5c-25.921-6.969-34.686-13.655-46.232-18.046
	c-40.935-15.609-51.591-26.858-54.31-32.155c-0.109-0.203-0.188-0.391-0.281-0.594l-0.344-47.561l-97.09-1.094l-97.121,1.094
	l-0.328,47.561c-0.094,0.203-0.172,0.391-0.266,0.594c-2.719,5.297-13.375,16.546-54.311,32.155
	c-11.546,4.391-20.312,11.077-46.248,18.046l-1.781,0.5C15.859,391.471,0,413.377,0,438.08v68.669h239.522h178.415l61.107-68.669
	C479.044,413.377,463.17,391.471,439.56,383.676z"/>
<path style="fill:#DBAFA5;" d="M337.237,332.974c-0.109-0.203-0.188-0.391-0.281-0.594l-0.344-47.561l-97.09-1.094l-97.121,1.094
	l-0.328,47.561c-0.094,0.203-0.172,0.391-0.266,0.594c-2.578,5.031-12.312,15.422-48.358,29.827
	c20.531,13.53,69.326,39.044,145.401,39.044c74.95,0,125.87-24.779,148.259-38.45C349.831,348.692,339.846,338.084,337.237,332.974z
	"/>
<path style="fill:#EAC6BB;" d="M374.266,192.355c0,87.543-83.465,168.118-134.745,168.118c-51.295,0-134.745-80.575-134.745-168.118
	c0-87.552,60.326-145.314,134.745-145.314C313.94,47.041,374.266,104.803,374.266,192.355z"/>
<g>
	<path style="fill:#434A54;" d="M398.875,368.286c-2.438-1.156-4.828-2.203-7.328-3.156c-6.188-2.359-11.672-4.625-16.562-6.766
		c-5.891,3.281-13.14,6.953-21.701,10.625c-23.922,10.218-63.201,22.404-114.434,22.404c-51.123,0-89.043-12.124-111.871-22.295
		c-8.765-3.891-16.031-7.812-21.765-11.266c-5.171,2.312-11.031,4.75-17.718,7.297c-1.922,0.719-3.765,1.516-5.625,2.359
		c6.718,4.874,18.624,12.608,35.608,20.248c24.843,11.203,66.044,24.546,121.37,24.546c55.233,0,97.668-13.312,123.542-24.468
		C379.344,380.488,391.609,373.129,398.875,368.286z"/>
	<polygon style="fill:#434A54;" points="0,464.969 455.123,464.969 473.731,444.063 0,444.063 	"/>
</g>
<path style="fill:#ED5564;" d="M374.266,192.355c0-10.585-0.906-20.733-2.578-30.397H107.339
	c-1.672,9.664-2.562,19.812-2.562,30.397c0,10.921,1.297,21.733,3.672,32.295h262.146
	C372.969,214.089,374.266,203.277,374.266,192.355z"/>
<g>
	<path style="fill:#EAC6BB;" d="M323.096,193.301c0,11.539-14.03,20.905-31.342,20.905s-31.344-9.367-31.344-20.905
		s14.031-20.897,31.344-20.897C309.066,172.403,323.096,181.762,323.096,193.301z"/>
	<path style="fill:#EAC6BB;" d="M218.616,193.301c0,11.539-14.015,20.905-31.342,20.905c-17.312,0-31.343-9.367-31.343-20.905
		s14.031-20.897,31.343-20.897C204.601,172.403,218.616,181.762,218.616,193.301z"/>
</g>
<path style="fill:#A0D468;" d="M485.761,332.193c-19.046-28.921-43.139-44.857-67.825-44.857s-48.764,15.937-67.824,44.857
	c-16.156,24.53-26.203,55.388-26.203,80.527c0,51.842,42.186,94.028,94.027,94.028c51.857,0,94.044-42.187,94.044-94.028
	C511.98,387.581,501.933,356.723,485.761,332.193z"/>
<path style="fill:#CCD1D9;" d="M417.936,464.969c-5.766,0-10.452-4.672-10.452-10.452v-104.48c0-5.78,4.687-10.452,10.452-10.452
	s10.452,4.672,10.452,10.452v104.48C428.388,460.297,423.702,464.969,417.936,464.969z"/>
<path style="fill:#656D78;" d="M374.266,191.324c-3.812-91.614-5.031-117.034-54.388-156.291
	c-80.356-63.928-204.335-5.117-204.335-5.117l22.39,15.687c0,0-81.934,54.115-61.356,189.5
	c2.531,16.632,115.542-112.988,235.756-105.926L374.266,191.324z"/>
<path style="fill:#E6E9ED;" d="M386.594,444.079c-5.781,0-10.438-4.671-10.438-10.437c-0.016-5.781,4.656-10.453,10.438-10.453
	h37.468l-44.858-44.857c-2.984-3-3.875-7.483-2.266-11.39s5.422-6.453,9.656-6.453h62.686c5.766,0,10.453,4.672,10.453,10.438
	c0,5.78-4.688,10.452-10.453,10.452h-37.468l44.858,44.857c2.984,3,3.875,7.484,2.25,11.391c-1.609,3.906-5.406,6.452-9.641,6.452
	L386.594,444.079L386.594,444.079z"/>
<g>
</g>
<g>
</g>
<g>
</g>
<g>
</g>
<g>
</g>
<g>
</g>
<g>
</g>
<g>
</g>
<g>
</g>
<g>
</g>
<g>
</g>
<g>
</g>
<g>
</g>
<g>
</g>
<g>
</g>
</svg>
