<svg id="Line" height="512" viewBox="0 0 64 64" width="512" xmlns="http://www.w3.org/2000/svg"><path d="m59 63h-32a3 3 0 0 1 -3-3v-27.586l-4-4a2 2 0 0 1 1.414-3.414h37.586a3 3 0 0 1 3 3v32a3 3 0 0 1 -3 3zm-6-28a1 1 0 0 0 -1-1h-18a1 1 0 0 0 0 2h18a1 1 0 0 0 1-1zm0 9a1 1 0 0 0 -1-1h-18a1 1 0 0 0 0 2h18a1 1 0 0 0 1-1zm0 9a1 1 0 0 0 -1-1h-18a1 1 0 0 0 0 2h18a1 1 0 0 0 1-1z" fill="#c4a2fc"/><g fill="#151a6a"><path d="m40 26a1 1 0 0 0 -2 0 17 17 0 0 1 -34 0 1 1 0 0 0 -2 0 19.007 19.007 0 0 0 18 18.949v4.051h-8a1 1 0 0 0 0 2h18a1 1 0 0 0 0-2h-8v-4.051a19.007 19.007 0 0 0 18-18.949z"/><path d="m49 1h-17a3 3 0 0 0 -2.98 2.8 12.969 12.969 0 0 0 -21.02 10.2v12a13 13 0 0 0 26 0v-5h15a3 3 0 0 0 3-3v-14a3 3 0 0 0 -3-3zm-17 24h-5a1 1 0 0 0 0 2h4.949a10.994 10.994 0 0 1 -21.9 0h4.951a1 1 0 0 0 0-2h-5v-4h5a1 1 0 0 0 0-2h-5v-4h5a1 1 0 0 0 0-2h-4.949a10.97 10.97 0 0 1 18.949-6.513v6.513h-2a1 1 0 0 0 0 2h2v1.586l-2.707 2.707a1 1 0 0 0 .707 1.707h5zm18-7a1 1 0 0 1 -1 1h-19.586l1.293-1.293a1 1 0 0 0 .293-.707v-13a1 1 0 0 1 1-1h17a1 1 0 0 1 1 1z"/><path d="m45 7h-9a1 1 0 0 0 0 2h9a1 1 0 0 0 0-2z"/><path d="m45 13h-9a1 1 0 0 0 0 2h9a1 1 0 0 0 0-2z"/></g></svg>