<?xml version="1.0" encoding="iso-8859-1"?>
<!-- Generator: Adobe Illustrator 18.0.0, SVG Export Plug-In . SVG Version: 6.00 Build 0)  -->
<!DOCTYPE svg PUBLIC "-//W3C//DTD SVG 1.1//EN" "http://www.w3.org/Graphics/SVG/1.1/DTD/svg11.dtd">
<svg version="1.1" id="Capa_1" xmlns="http://www.w3.org/2000/svg" xmlns:xlink="http://www.w3.org/1999/xlink" x="0px" y="0px"
	 viewBox="0 0 134.672 134.672" style="enable-background:new 0 0 134.672 134.672;" xml:space="preserve">
<g>
	<path style="fill-rule:evenodd;clip-rule:evenodd;fill:#FFDECC;" d="M55.597,81.387C29.645,92.764,21.86,98.83,18.783,101.553
		c-4.742,4.196-7.365,19.838-10.162,33.119h58.715h58.715c-2.798-13.281-5.421-28.923-10.163-33.119
		c-3.076-2.723-10.576-8.633-36.528-20.01L55.597,81.387z"/>
	<path style="fill-rule:evenodd;clip-rule:evenodd;fill:#FFDECC;" d="M79.937,58.708v28.767c-6.931,8.488-18.271,8.194-25.201,0
		V58.708C54.735,43.175,79.937,43.175,79.937,58.708z"/>
	<path style="fill-rule:evenodd;clip-rule:evenodd;fill:#F7C5AA;" d="M79.937,58.708v19.26c-4.769,3.476-9.365,5.423-12.601,5.423
		c-3.236,0-7.833-1.947-12.601-5.423v-19.26C54.735,43.175,79.937,43.175,79.937,58.708z"/>
	<path style="fill-rule:evenodd;clip-rule:evenodd;fill:#FFDECC;" d="M67.336,7.062c-42.292,0-27.083,51.102-24.32,55.17
		c3.046,4.485,17.487,16.376,24.32,16.376c6.833,0,21.273-11.891,24.319-16.376C94.419,58.163,109.628,7.062,67.336,7.062z"/>
	<path style="fill-rule:evenodd;clip-rule:evenodd;fill:#F7C5AA;" d="M78.6,63.058c-9.915,0.456-19.72-3.194-25.716-8.609
		C53.258,62.654,72.147,69.043,78.6,63.058z"/>
	<path style="fill-rule:evenodd;clip-rule:evenodd;fill:#F7C5AA;" d="M55.49,53.735c-2.067,0.804-3.74,2.436-4.476,4.084
		C50.531,55.576,53.825,52.528,55.49,53.735z"/>
	
		<ellipse transform="matrix(-0.3128 -0.9498 0.9498 -0.3128 7.0347 93.7254)" style="fill-rule:evenodd;clip-rule:evenodd;fill:#FFDECC;" cx="37.423" cy="44.318" rx="7.317" ry="4.23"/>
	
		<ellipse transform="matrix(0.3128 -0.9498 0.9498 0.3128 25.0698 123.2853)" style="fill-rule:evenodd;clip-rule:evenodd;fill:#FFDECC;" cx="97.733" cy="44.318" rx="7.317" ry="4.231"/>
	<path style="fill-rule:evenodd;clip-rule:evenodd;fill:#FFC65D;" d="M58.071,20.534c-12.634-0.217-16.197,13.01-18.639,27.403
		C32.809,7.855,46.935-0.122,66.581,0.001c20.381,0.128,36.145,4.645,29.443,45.751c-2.609-11.705-8.664-27.459-18.808-25.219
		C70.315,22.059,65.024,20.653,58.071,20.534z"/>
	<path style="fill-rule:evenodd;clip-rule:evenodd;fill:#FF386A;" d="M115.889,101.553c-2.563-2.268-8.194-6.745-24.988-14.748
		c-0.119,0.124-0.241,0.245-0.358,0.372c-15.765,17.053-38.1,8.671-44.142-0.578c-0.189-0.269-0.379-0.525-0.568-0.788
		c-18.248,8.568-24.396,13.396-27.048,15.742c-1.096,0.97-2.077,2.556-2.975,4.577c16.085,3.024,16.114,11.885,16.647,28.542h34.88
		h34.879c0.532-16.657,0.563-25.518,16.648-28.543C117.966,104.108,116.984,102.522,115.889,101.553z"/>
	<g>
		<rect x="39.181" y="122.145" style="fill-rule:evenodd;clip-rule:evenodd;fill:#FFFFFF;" width="7.889" height="7.889"/>
		<rect x="51.286" y="122.145" style="fill-rule:evenodd;clip-rule:evenodd;fill:#FFFFFF;" width="7.889" height="7.889"/>
		<rect x="63.392" y="122.145" style="fill-rule:evenodd;clip-rule:evenodd;fill:#FFFFFF;" width="7.889" height="7.889"/>
		<rect x="75.497" y="122.145" style="fill-rule:evenodd;clip-rule:evenodd;fill:#FFFFFF;" width="7.889" height="7.889"/>
		<rect x="87.603" y="122.145" style="fill-rule:evenodd;clip-rule:evenodd;fill:#FFFFFF;" width="7.889" height="7.889"/>
	</g>
</g>
<g>
</g>
<g>
</g>
<g>
</g>
<g>
</g>
<g>
</g>
<g>
</g>
<g>
</g>
<g>
</g>
<g>
</g>
<g>
</g>
<g>
</g>
<g>
</g>
<g>
</g>
<g>
</g>
<g>
</g>
</svg>
